# xmcd
#
# Track frame offsets: 
#        150
#        20713
#        45201
#        70323
#        91798
#        111901
#        133084
#        154448
#        181273
#        209990
#        226402
#        243708
#
# Disc length: 3570 seconds
#
# Revision: 0
# Processed by: cddbd v1.5.2PL0 Copyright (c) Steve Scherf et al.
# Submitted via: ExactAudioCopy v1.0b3
#
DISCID=ad0df00c
DTITLE=Tuan Vu - Nhung Tinh Khuc Bat Hu 2
DYEAR=2002
DGENRE=
TTITLE0=Doi mat nguoi xua (Tinh nao trong mat em)
TTITLE1=Nguoi yeu co don
TTITLE2=Mua Xuan la kho
TTITLE3=Hoa su nha nang
TTITLE4=La thu cuoi cung
TTITLE5=Canh buom chuyen ben
TTITLE6=La thu do thi
TTITLE7=Huong bang khuang (Huong so ri)
TTITLE8=Mua chieu ky niem
TTITLE9=Trang the
TTITLE10=Chuyen hen ho
TTITLE11=Dau chan ky niem
EXTD=
EXTT0=
EXTT1=
EXTT2=
EXTT3=
EXTT4=
EXTT5=
EXTT6=
EXTT7=
EXTT8=
EXTT9=
EXTT10=
EXTT11=
PLAYORDER=
